<svg id="Capa_1" data-name="Capa 1" xmlns="http://www.w3.org/2000/svg" viewBox="0 0 136.16 145.2"><defs><style>.cls-1{fill:#ffdc73;}</style></defs><path id="Path_3351" data-name="Path 3351" class="cls-1" d="M4.53,85.45C7,82,13.36,82,17.44,83.2a21.88,21.88,0,0,1,7.48,4.72C36.05,96.66,38.32,99.39,40.6,98.6c2-.69,2.64-3.7,3.56-8.54a56.71,56.71,0,0,0,.51-17.73L26.5,29.25a9.26,9.26,0,1,1,17-7.42l.09.21L59.46,59.7a52.7,52.7,0,0,1,7-3.3L55.88,13.89a9.27,9.27,0,1,1,17.9-4.8c0,.12.06.23.08.34L84.65,53h.12c1.44,0,2.87.07,4.28.19V11.68a9.26,9.26,0,1,1,18.52-.33v47c1.33.66,2.63,1.37,3.89,2.15l9.37-32.64a9.26,9.26,0,0,1,11.46-6.35h0A9.27,9.27,0,0,1,138.64,33l-12,41.74a129.09,129.09,0,0,1,1.58,18.2,73,73,0,0,1-.71,14.25,56.14,56.14,0,0,1-5.7,17.1,45.52,45.52,0,0,1-32.77,22.8c-15.11,2-26.62-5-33.49-9.26A66.34,66.34,0,0,1,35.5,118.56L6.78,98.36a9.26,9.26,0,0,1-2.26-12.9Z" transform="translate(-2.84 -2.22)"/></svg>